<svg data-spaceweb="icon" viewBox="0 0 14 14" data-icon-name="BrandInstagramCircleClr" class="inline-block fill-current forced-colors:text-inherit w-[--sw-width] h-[--sw-height]" style="--sw-height: 12rem; --sw-width: 12rem;"><defs><linearGradient id="instagram_grd_cir__a" gradientUnits="userSpaceOnUse" x1="4.202" y1="2.563" x2="10.26" y2="12.17"><stop offset="0" stop-color="#7900ff"></stop><stop offset=".624" stop-color="#ec008c"></stop><stop offset="1" stop-color="#f8a73a"></stop></linearGradient></defs><circle fill="url(#instagram_grd_cir__a)" cx="7" cy="7" r="7"></circle><path fill="#FFF" d="M7 2.935c-1.104 0-1.242.004-1.676.024-.433.02-.728.089-.987.19a1.993 1.993 0 0 0-.72.468 1.993 1.993 0 0 0-.469.72c-.1.259-.169.554-.189.987-.02.434-.024.572-.024 1.676s.004 1.242.024 1.676c.02.433.089.728.19.987.103.267.242.494.468.72.226.226.453.365.72.469.259.1.554.169.987.189.434.02.572.024 1.676.024s1.242-.004 1.676-.024c.433-.02.728-.089.987-.19.267-.103.494-.242.72-.468.226-.226.365-.453.469-.72.1-.259.169-.554.189-.987.02-.434.024-.572.024-1.676s-.004-1.242-.024-1.676a2.984 2.984 0 0 0-.19-.987 1.993 1.993 0 0 0-.468-.72 1.993 1.993 0 0 0-.72-.469 3.005 3.005 0 0 0-.987-.189c-.434-.02-.572-.024-1.676-.024zm0 .732c1.085 0 1.214.004 1.643.024.396.018.611.084.755.14.19.074.325.162.467.304.142.142.23.278.304.467.056.144.122.359.14.755.02.429.024.558.024 1.643s-.004 1.214-.024 1.643c-.018.396-.084.611-.14.755a1.26 1.26 0 0 1-.304.467 1.26 1.26 0 0 1-.467.304c-.144.056-.359.122-.755.14-.429.02-.557.024-1.643.024s-1.214-.004-1.643-.024c-.396-.018-.611-.084-.755-.14a1.26 1.26 0 0 1-.467-.304 1.26 1.26 0 0 1-.304-.467c-.056-.144-.122-.359-.14-.755-.02-.429-.024-.558-.024-1.643s.004-1.214.024-1.643c.018-.396.084-.611.14-.755a1.26 1.26 0 0 1 .304-.467 1.26 1.26 0 0 1 .467-.304c.144-.056.359-.122.755-.14.429-.02.558-.024 1.643-.024zm0 1.245a2.088 2.088 0 1 0 0 4.175 2.088 2.088 0 0 0 0-4.175zm0 3.443a1.355 1.355 0 1 1 0-2.71 1.355 1.355 0 0 1 0 2.71zM9.658 4.83a.488.488 0 1 1-.976 0 .488.488 0 0 1 .976 0z"></path></svg>