<svg data-spaceweb="icon" viewBox="0 0 14 14" data-icon-name="BrandYoutubeCircleClr" class="inline-block fill-current forced-colors:text-inherit w-[--sw-width] h-[--sw-height]" style="--sw-height: 12rem; --sw-width: 12rem;"><rect width="14" height="14" rx="7" fill="red"></rect><path d="M11.656 4.661a1.217 1.217 0 00-.86-.86A29.04 29.04 0 007 3.6a29.04 29.04 0 00-3.797.203 1.217 1.217 0 00-.859.859A12.646 12.646 0 002.141 7a12.646 12.646 0 00.203 2.339 1.217 1.217 0 00.86.86A29.04 29.04 0 007 10.4a29.04 29.04 0 003.797-.203 1.217 1.217 0 00.859-.859A12.646 12.646 0 0011.859 7a12.646 12.646 0 00-.203-2.339zM6.028 8.458V5.542L8.553 7z" fill="#fff"></path></svg>