<svg data-spaceweb="icon" viewBox="0 0 14 14" data-icon-name="BrandLinkedinCircleClr" class="inline-block fill-current forced-colors:text-inherit w-[--sw-width] h-[--sw-height]" style="--sw-height: 12rem; --sw-width: 12rem;"><circle fill="#1075B1" cx="7" cy="7" r="7"></circle><g fill="#FFF"><path d="M3.612 5.782h1.5v4.514h-1.5zm.761-2.177c-.514 0-.85.338-.85.78 0 .434.326.781.83.781h.01c.523 0 .849-.347.849-.78-.01-.443-.326-.78-.839-.78zm4.424 2.071c-.8 0-1.154.44-1.353.747v.014h-.009l.01-.014v-.641H5.942c.02.423 0 4.514 0 4.514h1.501v-2.52c0-.135.01-.27.05-.366.108-.27.355-.55.77-.55.543 0 .76.415.76 1.021v2.415h1.5V7.708c0-1.387-.74-2.032-1.727-2.032z"></path><path d="M7.444 6.437v-.014l-.009.014z"></path></g></svg>