<svg data-spaceweb="icon" viewBox="0 0 14 14" data-icon-name="BrandFacebookCircleClr" class="inline-block fill-current forced-colors:text-inherit w-[--sw-width] h-[--sw-height]" style="--sw-height: 12rem; --sw-width: 12rem;"><defs></defs><path d="m14,7c0,1.94-.78,3.68-2.05,4.95-1.05,1.06-2.46,1.78-4.02,1.98-.31.05-.62.07-.93.07-.43,0-.85-.04-1.25-.12C2.48,13.3,0,10.44,0,7,0,5.06.79,3.32,2.05,2.05,3.32.78,5.07,0,7,0s3.69.78,4.95,2.05c1.27,1.27,2.05,3.01,2.05,4.95Z" fill="#3161f3"></path><path d="m7.93,5.4v1.49h2.1l-.27,2.12h-1.83v4.92c-.31.05-.62.07-.93.07-.43,0-.85-.04-1.25-.12v-4.87h-1.85v-2.12h1.84v-1.91s.16-2.46,2.5-2.46c0,0,1.51-.01,1.87.08v1.9h-1.31s-.87-.03-.87.9Z" fill="#fff"></path></svg>