<svg data-spaceweb="icon" viewBox="0 0 14 14" data-icon-name="BrandSprinklrClr" class="inline-block fill-current forced-colors:text-inherit w-[--sw-width] h-[--sw-height]" style="--sw-height: 12rem; --sw-width: 12rem;"><path fill="#faa21b" d="M1 3.327a1.239 1.239 0 011.313-1.168 1.318 1.318 0 01.807.299 7.214 7.214 0 012.29 6.065c-.014.106-.136.102-.167 0a6.69 6.69 0 00-3.29-3.853A1.321 1.321 0 011 3.327z"></path><path fill="#70bf54" d="M5.173 10.933c-.406-1.36-2.465-3.608-3.965-3.608a1.18 1.18 0 10.039 2.358 6.546 6.546 0 013.797 1.333c.067.053.156.008.13-.083z"></path><path fill="#00bae9" d="M7.038 12.55c-.014.105-.133.1-.165 0C5.177 7.238 8.225 1.426 10.496 1.374a1.885 1.885 0 012.027 1.829 1.73 1.73 0 01-1.01 1.663 9.891 9.891 0 00-4.475 7.683z"></path><path fill="#128acb" d="M8.958 11.015c-.067.054-.158.009-.132-.082.406-1.36 2.466-3.607 3.966-3.607a1.18 1.18 0 11-.039 2.357 6.794 6.794 0 00-3.795 1.332z"></path></svg>