<svg data-spaceweb="icon" viewBox="0 0 14 14" data-icon-name="SolidTextAsset" class="inline-block fill-current forced-colors:text-inherit w-[--sw-width] h-[--sw-height]" style="--sw-height: 12rem; --sw-width: 12rem;"><path d="M12.063 0H1.937a1.5 1.5 0 00-1.5 1.5v11a1.5 1.5 0 001.5 1.5h10.126a1.5 1.5 0 001.5-1.5v-11a1.5 1.5 0 00-1.5-1.5zm-1.575 10.354H3.512a.6.6 0 110-1.199h6.976a.6.6 0 010 1.2zm0-2.755H3.512a.6.6 0 110-1.199h6.976a.6.6 0 110 1.2zm0-2.754H3.512a.6.6 0 010-1.199h6.976a.6.6 0 010 1.2z"></path></svg>