<svg viewBox="0 0 14 14" xmlns="http://www.w3.org/2000/svg" width="192" height="192">
  <path fill="#3FBF41" d="M13.096 3.406L9.876.367A1.328 1.328 0 0 0 8.964 0H1.817c-.76 0-1.38.661-1.38 1.475v11.05c0 .814.62 1.475 1.38 1.475h10.366c.761 0 1.38-.661 1.38-1.474V4.512c0-.423-.17-.825-.467-1.106zm-9.543.734h2.876c.307 0 .556.267.556.595s-.25.596-.556.596H3.553c-.308 0-.557-.267-.557-.596s.25-.595.557-.595zm5.753 6.823H3.553c-.308 0-.557-.267-.557-.595 0-.329.25-.596.557-.596h5.753c.307 0 .556.267.556.596 0 .328-.25.595-.556.595zm0-2.84H3.553c-.308 0-.557-.267-.557-.596 0-.328.25-.595.557-.595h5.753c.307 0 .556.267.556.595 0 .329-.25.596-.556.596z"/>
</svg>
